<svg width="60" height="62" viewBox="0 0 60 62" fill="none" xmlns="http://www.w3.org/2000/svg">
<rect width="60" height="60" rx="20" fill="#683594"/>
<g clip-path="url(#clip0_280_2269)">
<path d="M32.7513 45.2755L32.8055 38.5321L43.3841 29.915C43.3841 29.915 44.5854 36.7472 44.5854 36.9597C44.5854 37.1723 44.0659 46.1876 44.0659 46.1876L31.4739 51.3978L32.7513 45.2734V45.2755Z" fill="#DADDE3"/>
<mask id="mask0_280_2269" style="mask-type:alpha" maskUnits="userSpaceOnUse" x="2" y="0" width="60" height="60">
<rect x="2" width="60" height="60" rx="20" fill="#683594"/>
</mask>
<g mask="url(#mask0_280_2269)">
<path d="M31.6827 50.1308C37.2557 49.7635 44.0662 43.2553 42.9451 31.1985C42.5661 30.4371 40.0072 41.9966 38.1101 42.7023C35.7818 43.9714 32.8197 44.576 30.2749 44.772C20.707 45.5107 19.9529 20.875 19.8687 19.3996C19.6441 15.3882 21.0699 11.0219 22.4737 9.37524C23.6449 9.73429 23.5527 12.2084 25.1109 12.1176C26.4425 12.0412 27.8403 11.839 29.1739 11.5893C31.6867 11.5006 34.1734 11.8101 36.5579 12.487L39.2772 16.032C39.2772 16.032 39.5279 17.6539 41.7098 18.665C43.8897 19.672 42.6142 25.394 42.6142 25.394H43.7834C43.5829 23.2727 45.5943 27.2408 47.3551 29.7293C47.8484 30.4268 48.1713 30.565 48.5784 30.9674L49.0236 59.1956L29.6612 62.002L31.6827 50.1329V50.1308Z" fill="#F1F1F3"/>
</g>
<path d="M29.0313 11.7732C27.6976 12.0249 26.2999 12.2251 24.9683 12.3014C25.9469 12.0353 27.1361 11.8805 28.4116 11.8021C28.6181 11.7897 28.8247 11.7794 29.0313 11.7732Z" fill="#F1F1F3"/>
<path d="M48.5882 31.6298C48.1811 31.2295 47.7058 30.6125 47.2125 29.913C45.4517 27.4245 43.4704 23.9207 43.6408 25.5777H41.5672C41.5672 25.5777 43.7471 19.8557 41.5672 18.8487C39.3873 17.8376 37.426 17.949 37.426 17.949L36.4153 12.6707C40.005 13.6879 43.3601 15.5389 46.2078 18.1079L47.385 19.3645L48.1711 27.3832L48.5882 31.6319V31.6298Z" fill="#F1F1F3"/>
<path d="M48.5882 31.6339C48.1811 31.2315 47.7058 30.6125 47.2125 29.915C45.4517 27.4265 45.572 27.476 43.6408 25.5797H42.5017C42.5017 25.5797 43.7471 19.8577 41.5672 18.8507C40.8272 18.5082 40.1133 18.2936 39.4916 18.1615C38.2101 17.8871 37.2154 16.8512 36.9627 15.5306L36.6158 13.7168C36.6158 13.7168 28.181 16.6428 20.2635 14.6763C20.5503 11.8597 21.7957 9.29479 23.9475 7.50577C25.7805 5.98292 28.0406 5.09151 30.3188 4.56119C33.2226 3.88438 36.2007 3.73374 39.0925 4.58802C42.602 5.62388 45.6723 7.95973 47.6256 11.1375C48.8469 13.1246 49.619 15.3903 49.8917 17.7241C49.9439 18.1656 49.978 18.6093 49.994 19.0571C50.1123 22.3916 48.9712 23.5967 48.5922 31.6319" fill="#AEAFB2"/>
<path d="M40.3399 27.2079C40.3399 25.7139 39.1627 24.5027 37.7108 24.5027C36.2589 24.5027 35.0817 25.7139 35.0817 27.2079C35.0817 28.7018 36.2589 29.9131 37.7108 29.9131C39.1627 29.9131 40.3399 28.7018 40.3399 27.2079Z" fill="#DADDE3"/>
<path d="M20.819 17.4187C18.1578 17.4187 16 19.8144 16 22.7693C16 25.7242 18.1578 28.1199 20.819 28.1199C23.4802 28.1199 25.6381 25.7242 25.6381 22.7693C25.6381 19.8144 23.4802 17.4187 20.819 17.4187ZM20.819 27.3357C18.5489 27.3357 16.7079 25.2929 16.7079 22.7713C16.7079 20.2498 18.5489 18.2049 20.819 18.2049C23.0892 18.2049 24.9302 20.2477 24.9302 22.7713C24.9302 25.295 23.0892 27.3357 20.819 27.3357Z" fill="black"/>
<path d="M32.1777 17.4187C29.306 17.4187 26.9777 19.8144 26.9777 22.7693C26.9777 25.7242 29.306 28.1199 32.1777 28.1199C35.0495 28.1199 37.3778 25.7242 37.3778 22.7693C37.3778 19.8144 35.0495 17.4187 32.1777 17.4187ZM32.1777 27.3357C29.7271 27.3357 27.7397 25.2929 27.7397 22.7713C27.7397 20.2498 29.7271 18.2049 32.1777 18.2049C34.6284 18.2049 36.6157 20.2477 36.6157 22.7713C36.6157 25.295 34.6284 27.3357 32.1777 27.3357Z" fill="black"/>
<path d="M27.3968 21.5891H24.9321V22.3753H27.3968V21.5891Z" fill="black"/>
<path d="M36.6157 19.9794L44.0659 19.8577C44.0659 19.8577 43.2256 20.487 42.6902 21.5889H36.6157V19.9794Z" fill="black"/>
<path d="M25.6381 34.2093L29.0312 34.1309" stroke="black" stroke-width="1.71" stroke-miterlimit="10" stroke-linecap="round"/>
<path d="M21.202 31.6341C24.8238 27.9054 33.3429 30.4847 36.6899 31.5557C37.6987 31.8796 38.8057 31.5577 39.4815 30.722C40.9414 28.9103 45.6923 21.9832 41.7055 17.4209L47.9384 20.8504C47.9384 20.8504 42.9228 25.033 43.1775 27.1233C43.4322 29.2136 42.1607 45.9401 32.5106 46.9863C32.4144 46.9966 32.3181 47.009 32.2238 47.0152C21.3043 47.7518 20.6866 34.6158 21.204 31.6341" fill="#AEAFB2"/>
<path d="M47.9385 22.7714C47.9385 25.2991 46.663 27.3481 45.0907 27.3481C43.5185 27.3481 42.243 25.2991 42.243 22.7714C42.243 20.2436 43.5185 18.1946 45.0907 18.1946C46.663 18.1946 47.9385 20.2436 47.9385 22.7714Z" fill="#F1F1F3"/>
</g>
<defs>
<clipPath id="clip0_280_2269">
<rect width="34" height="58" fill="white" transform="translate(16 4)"/>
</clipPath>
</defs>
</svg>
