<svg width="343" height="135" viewBox="0 0 343 135" fill="none" xmlns="http://www.w3.org/2000/svg">
<rect x="0.5" y="0.5" width="342" height="134" rx="7.5" fill="#FBC403" stroke="#1A1A1A"/>
<path d="M165 134C165 98.6538 193.654 70 229 70H342V126C342 130.418 338.418 134 334 134H165Z" fill="#0078B7"/>
<mask id="mask0_285_3063" style="mask-type:alpha" maskUnits="userSpaceOnUse" x="0" y="14" width="343" height="120">
<rect x="0.5" y="14.5" width="342" height="119" rx="7.5" fill="#FBC403" stroke="#1A1A1A"/>
</mask>
<g mask="url(#mask0_285_3063)">
<path d="M247.422 135.002C285.698 135.002 316.727 134.311 316.727 133.458C316.727 132.605 285.698 131.914 247.422 131.914C209.145 131.914 178.116 132.605 178.116 133.458C178.116 134.311 209.145 135.002 247.422 135.002Z" fill="#1299B0"/>
<path d="M341.63 65H329.019L325.42 71.0853V133.974H337.673V71.6591L341.63 65Z" fill="white"/>
<path d="M335.006 71.0852H325.42V133.973H335.006V71.0852Z" fill="url(#paint0_linear_285_3063)"/>
<path d="M341.63 65H339.224L335.516 71.239L335.514 133.974H337.673V71.6591L341.63 65Z" fill="url(#paint1_linear_285_3063)"/>
<path d="M335.006 71.0853H325.42L329.019 65H338.608L335.006 71.0853Z" fill="white"/>
<path d="M339.832 68.0361L337.673 71.6591V133.974H339.832V68.0361Z" fill="url(#paint2_linear_285_3063)"/>
<path d="M334.015 73.5344H326.919V93.7327H334.015V73.5344Z" fill="#575756"/>
<path d="M333.314 74.7495H327.621V81.8981H333.314V74.7495Z" fill="url(#paint3_linear_285_3063)"/>
<path d="M330.468 83.5632C329.516 83.5632 328.743 84.3298 328.743 85.2784V88.4098C328.743 89.3561 329.514 90.1249 330.468 90.1249C331.423 90.1249 332.194 89.3583 332.194 88.4098V85.2784C332.194 84.332 331.423 83.5632 330.468 83.5632Z" fill="#B2B2B2"/>
<path style="mix-blend-mode:color-dodge" opacity="0.65" d="M333.314 74.7495H327.621V81.8981H333.314V74.7495Z" fill="url(#paint4_linear_285_3063)"/>
<path d="M245.733 80.6267C245.853 79.1888 254.953 78.7643 266.06 79.676C277.167 80.5878 286.524 82.4112 285.954 83.9292C285.446 85.2784 283.851 87.0433 274.282 86.3828C263.165 85.614 245.615 82.0647 245.733 80.6267Z" fill="#F6F6F6"/>
<path d="M188.149 95.1493L192.804 93.8889C193.604 93.6724 194.46 93.8239 195.136 94.3004L197.19 95.7513C197.534 95.9938 197.739 96.388 197.739 96.8081V97.9775C197.739 98.5406 197.255 98.9845 196.691 98.9412L188.323 98.2959C187.815 98.2569 187.423 97.8346 187.425 97.33V96.0805C187.43 95.6452 187.724 95.264 188.146 95.1493H188.149Z" fill="#EDEDED"/>
<path d="M185.294 112.679C181.75 112.679 178.876 117.446 178.876 123.328C178.876 129.209 181.75 133.976 185.294 133.976H192.349V112.682H185.294V112.679Z" fill="#2E2E2D"/>
<path d="M278.936 112.679C275.391 112.679 272.518 117.446 272.518 123.328C272.518 129.209 275.391 133.976 278.936 133.976H285.991V112.682H278.936V112.679Z" fill="#2E2E2D"/>
<path d="M230.293 112.679C226.748 112.679 223.874 117.446 223.874 123.328C223.874 129.209 226.748 133.976 230.293 133.976H237.347V112.682H230.293V112.679Z" fill="#2E2E2D"/>
<path d="M192.349 133.973C195.894 133.973 198.767 129.206 198.767 123.325C198.767 117.445 195.894 112.677 192.349 112.677C188.804 112.677 185.931 117.445 185.931 123.325C185.931 129.206 188.804 133.973 192.349 133.973Z" fill="#3C3C3B"/>
<path d="M297.627 119.858C297.198 110.436 293.028 106.033 291.359 98.2784C290.287 94.1357 288.274 90.3243 285.978 86.985C283.252 83.0198 278.394 81.4649 273.396 80.7806C261.332 79.1304 247.635 78.236 227.707 79.5462C224.604 79.7498 213.744 81.3501 208.665 84.7089C204.676 87.3466 196.624 94.3003 192.584 98.2784C189.035 99.032 184.58 100.721 179.312 106.412C175.582 110.442 176.297 118.148 176.297 121.762C176.297 126.866 180.037 128.635 184.499 128.635H290.995C296.198 128.635 297.877 125.311 297.629 119.858H297.627Z" fill="url(#paint5_linear_285_3063)"/>
<path d="M211.199 84.2239C204.743 87.9595 197.227 95.303 194.85 98.1528H235.668C238.681 93.9083 244.607 87.5567 248.602 84.2239H211.199Z" fill="#264057"/>
<path d="M247.504 88.254C243.694 92.4964 240.291 97.475 238.866 100.258C238.866 100.258 268.572 98.3521 277.779 97.4252C282.396 96.9596 282.908 94.7118 282.147 92.4747C280.906 88.8149 279.182 84.971 276.256 84.2261C273.136 83.4313 264.219 82.5261 259.027 82.9094C255.524 83.1671 250.838 84.5422 247.502 88.254H247.504Z" fill="url(#paint6_linear_285_3063)"/>
<path d="M220.399 128.638H179.262C178.164 128.638 177.488 127.925 177.048 126.925C176.368 125.381 174.968 122.002 175 120.406C175.026 119.148 175.595 114.912 176.349 114.847C176.97 114.795 183.726 117.418 187.425 117.418H210.166C213.51 117.418 223.759 113.888 224.495 115.159C225.007 116.04 222.297 118.29 222.334 120.402C222.365 122.15 222.563 126.19 222.563 126.19C222.728 127.488 221.713 128.635 220.397 128.635L220.399 128.638Z" fill="#DADADA"/>
<path d="M215.885 126.526H179.595L181.469 122.041C181.813 121.218 182.621 120.681 183.519 120.681H210.282C210.972 120.681 211.624 121 212.042 121.545L215.885 126.526Z" fill="#3C3C3B"/>
<path d="M204.449 115.521H191.606L193.303 108.981H206.147L204.449 115.521Z" fill="#3C3C3B"/>
<path d="M214.805 111.655L204.449 115.521L206.147 108.981L215.885 107.493L214.805 111.655Z" fill="#3C3C3B"/>
<path d="M183.255 111.655L191.606 115.521L193.303 108.981L184.336 107.493L183.255 111.655Z" fill="#3C3C3B"/>
<path d="M184.336 107.493L183.255 111.657L177.63 109.057C177.286 107.108 178.31 105.713 179.087 104.821C179.765 104.05 183.14 101.873 185.547 101.109C185.621 101.187 181.321 103.472 182.122 104.602L184.334 107.493H184.336Z" fill="#46A7C7"/>
<path d="M253.038 95.1493L248.382 93.8889C247.583 93.6724 246.727 93.8239 246.051 94.3004L243.997 95.7513C243.652 95.9938 243.448 96.388 243.448 96.8081V97.9775C243.448 98.5406 243.931 98.9845 244.496 98.9412L252.864 98.2959C253.371 98.2569 253.764 97.8346 253.761 97.33V96.0805C253.757 95.6452 253.463 95.264 253.04 95.1493H253.038Z" fill="#DADADA"/>
<path d="M293.71 102.828C294.337 104.65 295.15 107.493 294.57 107.493C294.073 107.493 293.461 107.354 292.649 107.019C292.446 106.934 292.152 106.618 292.071 106.098C291.805 104.351 291.202 100.866 291.082 100.028C290.949 99.1079 290.749 97.6699 291.193 97.6699C291.734 97.6699 293.102 101.066 293.71 102.828Z" fill="#F0657E"/>
<path d="M244.964 128.638C245.43 127.031 245.692 125.229 245.692 123.328C245.692 116.565 242.387 111.083 238.31 111.083C234.234 111.083 230.929 116.565 230.929 123.328C230.929 125.231 231.19 127.031 231.657 128.638H244.964Z" fill="#2E2E2D"/>
<path d="M237.347 133.973C240.892 133.973 243.766 129.206 243.766 123.325C243.766 117.445 240.892 112.677 237.347 112.677C233.803 112.677 230.929 117.445 230.929 123.325C230.929 129.206 233.803 133.973 237.347 133.973Z" fill="#3C3C3B"/>
<path d="M237.347 130.247C239.652 130.247 241.52 127.148 241.52 123.325C241.52 119.503 239.652 116.404 237.347 116.404C235.043 116.404 233.175 119.503 233.175 123.325C233.175 127.148 235.043 130.247 237.347 130.247Z" fill="#B2B2B2"/>
<path d="M291.455 128.638C292.043 128.638 293.67 128.425 293.749 128.116C294.126 126.645 294.335 125.025 294.335 123.325C294.335 116.562 291.03 111.081 286.954 111.081C282.877 111.081 279.572 116.562 279.572 123.325C279.572 125.229 279.834 127.029 280.3 128.635H291.455V128.638Z" fill="#2E2E2D"/>
<path d="M285.991 133.973C289.535 133.973 292.409 129.206 292.409 123.325C292.409 117.445 289.535 112.677 285.991 112.677C282.446 112.677 279.572 117.445 279.572 123.325C279.572 129.206 282.446 133.973 285.991 133.973Z" fill="#3C3C3B"/>
<path d="M285.991 130.247C288.295 130.247 290.163 127.148 290.163 123.325C290.163 119.503 288.295 116.404 285.991 116.404C283.686 116.404 281.818 119.503 281.818 123.325C281.818 127.148 283.686 130.247 285.991 130.247Z" fill="#B2B2B2"/>
<path d="M211.232 85.6726C205.421 89.0336 200.565 93.5618 198.423 96.1258C198.423 96.1258 224.866 95.2661 233.485 92.3664C237.718 90.9414 237.092 87.8728 236.611 85.6726H211.229H211.232Z" fill="url(#paint7_linear_285_3063)"/>
<path d="M192.316 103.188C192.183 105.236 192.678 108.162 192.085 108.158C190.617 108.149 184.395 104.901 184.395 103.946C184.395 102.991 191.349 98.9453 193.301 98.9453C194.07 98.9453 192.534 99.8267 192.316 103.188Z" fill="white"/>
<path d="M227.598 106.88L214.805 111.655L215.885 107.493L220.345 104.017C221.585 103.051 222.97 102.432 224.323 102.239L232.245 101.109C232.92 101.011 233.18 101.797 232.676 102.423L231.317 104.117C230.295 105.39 228.983 106.365 227.596 106.882L227.598 106.88Z" fill="#7DC4D1"/>
<path d="M225.023 107.842L214.805 111.655L215.667 108.331L219.229 105.555C220.219 104.784 221.325 104.29 222.408 104.134L228.735 103.231C229.275 103.153 229.482 103.781 229.079 104.282L227.994 105.633C227.177 106.648 226.131 107.428 225.023 107.842Z" fill="white"/>
<path d="M184.114 108.331L183.257 111.655L178.848 109.682C177.769 106.991 180.037 104.19 182.005 103.227C182.26 103.465 181.133 103.92 181.883 105.128L184.114 108.331Z" fill="white"/>
<path d="M285.988 129.242C287.958 129.242 289.555 126.593 289.555 123.326C289.555 120.058 287.958 117.409 285.988 117.409C284.019 117.409 282.422 120.058 282.422 123.326C282.422 126.593 284.019 129.242 285.988 129.242Z" fill="#6B6A6A"/>
<path d="M237.345 129.242C239.315 129.242 240.912 126.593 240.912 123.326C240.912 120.058 239.315 117.409 237.345 117.409C235.375 117.409 233.779 120.058 233.779 123.326C233.779 126.593 235.375 129.242 237.345 129.242Z" fill="#6B6A6A"/>
<path d="M287.742 123.328C287.742 126.074 286.616 128.384 285.082 129.051C283.551 128.389 282.418 126.076 282.418 123.328C282.418 120.58 283.548 118.267 285.082 117.604C286.614 118.271 287.742 120.58 287.742 123.328Z" fill="#878787"/>
<path d="M239.101 123.328C239.101 126.074 237.975 128.384 236.441 129.051C234.909 128.389 233.776 126.076 233.776 123.328C233.776 120.58 234.907 118.267 236.441 117.604C237.973 118.271 239.101 120.58 239.101 123.328Z" fill="#878787"/>
<path d="M284.176 126.284C285.161 126.284 285.96 124.959 285.96 123.325C285.96 121.692 285.161 120.367 284.176 120.367C283.19 120.367 282.391 121.692 282.391 123.325C282.391 124.959 283.19 126.284 284.176 126.284Z" fill="#6B6A6A"/>
<path d="M235.533 126.284C236.518 126.284 237.317 124.959 237.317 123.325C237.317 121.692 236.518 120.367 235.533 120.367C234.547 120.367 233.748 121.692 233.748 123.325C233.748 124.959 234.547 126.284 235.533 126.284Z" fill="#6B6A6A"/>
<path d="M253.757 96.0805C253.757 95.6452 253.463 95.264 253.04 95.1493L248.385 93.8889C247.585 93.6724 246.729 93.8239 246.053 94.3004L243.999 95.7513C243.655 95.9938 243.45 96.388 243.45 96.8081C243.45 96.9337 243.557 97.0312 243.681 97.0225L253.548 96.3079C253.668 96.2992 253.762 96.1996 253.762 96.0805H253.757Z" fill="#F6F6F6"/>
<path d="M220.933 123.642H213.654L215.885 126.526H220.807C221.582 126.526 222.182 125.848 222.084 125.084L222.02 124.592C221.951 124.049 221.484 123.642 220.933 123.642Z" fill="white"/>
<path d="M180.811 123.642L179.597 126.524H176.876C176.543 125.749 176.111 124.698 175.745 123.642H180.813H180.811Z" fill="white"/>
<path d="M263.474 101.422L259.212 101.696C258.86 101.718 258.594 102.02 258.616 102.37L258.641 102.748C258.664 103.098 258.967 103.363 259.319 103.34L263.581 103.067C263.932 103.044 264.199 102.742 264.176 102.392L264.152 102.014C264.129 101.665 263.825 101.399 263.474 101.422Z" fill="url(#paint8_linear_285_3063)"/>
<path d="M280.5 99.8452L276.25 100.262C275.899 100.297 275.643 100.607 275.678 100.956L275.715 101.333C275.75 101.682 276.062 101.937 276.413 101.902L280.663 101.485C281.013 101.451 281.27 101.14 281.235 100.791L281.198 100.414C281.163 100.066 280.851 99.8108 280.5 99.8452Z" fill="url(#paint9_linear_285_3063)"/>
<path d="M282.391 93.4883C282.465 94.0232 282.439 94.5407 282.272 95.0172C283.361 99.8897 284.291 105.317 284.143 107.136C283.999 108.896 283.128 110.022 282.206 111.213C281.879 111.636 281.54 112.073 281.221 112.552C279.282 115.465 278.269 119.031 278.128 123.455C278.051 125.803 276.539 126.297 275.285 126.297H265.463C265.587 124.846 265.779 123.154 265.982 121.37C266.753 114.555 267.792 105.33 266.28 98.3738C266.128 98.3846 265.973 98.3976 265.818 98.4085C267.335 105.297 266.295 114.516 265.524 121.32C265.319 123.126 265.128 124.831 265.003 126.299H247.262L247.119 99.7165C246.966 99.7273 246.811 99.736 246.661 99.7468L246.807 126.754H275.285C276.478 126.754 278.494 126.327 278.585 123.473C278.725 119.135 279.712 115.646 281.603 112.805C281.914 112.34 282.245 111.909 282.568 111.493C283.533 110.245 284.444 109.07 284.598 107.173C284.764 105.133 283.62 98.7116 282.389 93.4883H282.391Z" fill="url(#paint10_linear_285_3063)"/>
<path d="M288.004 104.053C289.084 103.947 289.849 102.749 289.713 101.378C289.576 100.007 288.59 98.9813 287.51 99.0873C286.43 99.1933 285.665 100.391 285.801 101.762C285.938 103.133 286.924 104.159 288.004 104.053Z" fill="#575756"/>
<path d="M274.396 85.6726C275.507 85.6726 276.733 86.0386 277.156 86.8485C277.751 87.9919 278.217 88.8928 278.437 90.0124C278.614 90.9111 277.781 91.5391 275.644 91.5391C269.975 91.5391 263.733 91.3724 259.755 90.8483C258.494 90.6816 256.341 90.151 255.382 89.4277C254.637 88.8668 254.666 87.6303 254.86 86.9178C255.066 86.1577 255.35 85.6748 257.655 85.6748H274.394L274.396 85.6726Z" fill="#1E7099"/>
<path d="M256.457 79.453C256.496 80.2023 247.646 81.27 236.696 81.8438C225.739 82.4134 216.826 82.2661 216.787 81.519C216.787 81.4995 216.792 81.4843 216.802 81.4649C221.282 80.2781 225.861 79.6674 227.705 79.5462C238.831 78.8164 248.014 78.7731 256.056 79.1629C256.315 79.2646 256.452 79.3621 256.457 79.4552V79.453Z" fill="white"/>
<path d="M330.468 87.0867H325.42C324.686 87.0867 324.089 87.68 324.089 88.4098C324.089 89.1396 324.686 89.733 325.42 89.733H330.468C331.202 89.733 331.799 89.1396 331.799 88.4098C331.799 87.68 331.202 87.0867 330.468 87.0867Z" fill="#CC5129"/>
<path d="M331.741 88.0396C331.579 88.5896 331.074 88.9924 330.468 88.9924H326.61C326.392 89.4298 325.943 89.733 325.42 89.733H330.468C331.203 89.733 331.799 89.1397 331.799 88.4099C331.799 88.2799 331.775 88.1587 331.741 88.0396Z" fill="#AD4523"/>
<path d="M325.42 89.4818C326.016 89.4818 326.499 89.0019 326.499 88.4098C326.499 87.8178 326.016 87.3379 325.42 87.3379C324.825 87.3379 324.342 87.8178 324.342 88.4098C324.342 89.0019 324.825 89.4818 325.42 89.4818Z" fill="#ED9447"/>
<path d="M311.318 124.088C307.106 124.088 303.679 120.681 303.679 116.495V108.571C303.679 105.029 300.78 102.146 297.215 102.146H287.76C287.435 102.146 287.174 101.884 287.174 101.564C287.174 101.243 287.437 100.981 287.76 100.981H297.215C301.427 100.981 304.854 104.388 304.854 108.574V116.497C304.854 120.04 307.753 122.923 311.318 122.923C314.882 122.923 317.782 120.04 317.782 116.497V95.4199C317.782 91.2338 321.209 87.8274 325.42 87.8274C325.745 87.8274 326.006 88.0894 326.006 88.4099C326.006 88.7304 325.743 88.9925 325.42 88.9925C321.856 88.9925 318.956 91.8749 318.956 95.4177V116.495C318.956 120.681 315.529 124.088 311.318 124.088Z" fill="#CC5129"/>
<path d="M292.806 100.24H287.758C287.023 100.24 286.426 100.832 286.426 101.564C286.426 102.296 287.023 102.887 287.758 102.887H292.806C293.54 102.887 294.137 102.293 294.137 101.564C294.137 100.834 293.54 100.24 292.806 100.24Z" fill="#CC5129"/>
<path d="M292.806 102.146H287.758C287.152 102.146 286.649 101.743 286.485 101.193C286.45 101.312 286.426 101.433 286.426 101.563C286.426 102.293 287.023 102.887 287.758 102.887H292.806C293.54 102.887 294.137 102.293 294.137 101.563C294.137 101.433 294.113 101.312 294.078 101.193C293.917 101.743 293.411 102.146 292.806 102.146Z" fill="#AD4523"/>
<path d="M311.318 123.284C310.398 123.284 310.479 122.923 311.318 122.923C314.882 122.923 317.782 120.04 317.782 116.497V95.4197C317.782 92.3901 319.577 89.7676 322.168 88.5505C323.154 88.0871 323.462 88.1672 323.3 88.282C323.215 88.3426 322.621 88.6523 322.331 88.7974C320.819 89.551 318.331 91.8768 318.331 95.4197V116.497C318.331 120.413 315.019 123.286 311.316 123.286L311.318 123.284Z" fill="#ED9447"/>
<g style="mix-blend-mode:color-dodge" opacity="0.65">
<path d="M331.778 88.2019C331.678 87.5718 331.131 87.0867 330.468 87.0867H325.42C324.854 87.0867 324.373 87.4397 324.181 87.9356C323.732 88.0092 323.296 88.1196 322.876 88.2691C322.76 88.3037 322.627 88.3514 322.466 88.4185C322.451 88.425 322.434 88.4337 322.418 88.4402C322.338 88.4748 322.259 88.5073 322.168 88.5506C322.07 88.5961 321.976 88.648 321.88 88.6979C321.837 88.7217 321.791 88.7433 321.747 88.7672C321.556 88.8711 321.37 88.9837 321.187 89.105C321.146 89.1331 321.107 89.1635 321.065 89.1916C320.924 89.2912 320.784 89.393 320.649 89.5013C320.599 89.5403 320.549 89.5814 320.501 89.6226C320.351 89.7503 320.203 89.8803 320.063 90.0189C320.048 90.034 320.03 90.047 320.015 90.0622C319.861 90.2159 319.717 90.3762 319.575 90.5429C319.536 90.5884 319.499 90.636 319.462 90.6837C319.357 90.8136 319.255 90.9479 319.159 91.0865C319.126 91.1341 319.091 91.1818 319.059 91.2294C318.939 91.4092 318.823 91.5954 318.719 91.786C318.704 91.8141 318.688 91.8444 318.673 91.8748C318.584 92.0415 318.503 92.2104 318.427 92.3837C318.401 92.4421 318.377 92.5028 318.351 92.5612C318.281 92.728 318.22 92.8991 318.163 93.0723C318.15 93.1135 318.135 93.1546 318.122 93.1958C318.057 93.408 318.002 93.6224 317.954 93.8411C317.943 93.8952 317.935 93.9515 317.924 94.0057C317.891 94.1789 317.863 94.3543 317.843 94.5319C317.834 94.5969 317.828 94.6618 317.821 94.7268C317.799 94.9564 317.786 95.1859 317.786 95.422V116.499C317.786 120.042 314.887 122.925 311.322 122.925C307.758 122.925 304.858 120.042 304.858 116.499V108.576C304.858 104.39 301.431 100.983 297.22 100.983H294.002C293.784 100.546 293.335 100.243 292.812 100.243H287.764C287.159 100.243 286.655 100.645 286.492 101.195C286.477 101.247 286.464 101.301 286.455 101.356C286.442 101.423 286.433 101.492 286.433 101.564C286.433 102.293 287.03 102.887 287.764 102.887H292.812C293.335 102.887 293.784 102.584 294.002 102.146H297.22C300.784 102.146 303.684 105.028 303.684 108.571V116.495C303.684 120.681 307.111 124.088 311.322 124.088C315.534 124.088 318.961 120.681 318.961 116.495V95.4176C318.961 92.2581 321.268 89.6312 324.294 89.0963C324.527 89.4753 324.946 89.7308 325.425 89.7308H330.473C331.024 89.7308 331.497 89.3973 331.699 88.9231C331.767 88.765 331.804 88.5917 331.804 88.4077C331.804 88.3362 331.795 88.2669 331.782 88.1998L331.778 88.2019Z" fill="#1D1D1B"/>
</g>
</g>
<path d="M16.588 72.283C18.464 70.883 19.948 69.616 21.04 68.482C22.132 67.334 22.678 66.263 22.678 65.269C22.678 64.933 22.601 64.674 22.447 64.492C22.307 64.31 22.118 64.219 21.88 64.219C21.6 64.219 21.376 64.366 21.208 64.66C21.054 64.94 20.998 65.374 21.04 65.962H16.525C16.567 64.66 16.847 63.589 17.365 62.749C17.897 61.909 18.583 61.293 19.423 60.901C20.263 60.509 21.187 60.313 22.195 60.313C23.987 60.313 25.296 60.747 26.122 61.615C26.962 62.469 27.382 63.568 27.382 64.912C27.382 66.326 26.927 67.656 26.017 68.902C25.121 70.134 23.994 71.177 22.636 72.031H27.445V75.79H16.588V72.283ZM28.5665 68.104C28.5665 65.682 29.0775 63.778 30.0995 62.392C31.1355 61.006 32.7245 60.313 34.8665 60.313C36.9945 60.313 38.5765 61.013 39.6125 62.413C40.6485 63.799 41.1665 65.696 41.1665 68.104C41.1665 70.526 40.6485 72.437 39.6125 73.837C38.5765 75.223 36.9945 75.916 34.8665 75.916C32.7245 75.916 31.1355 75.223 30.0995 73.837C29.0775 72.437 28.5665 70.526 28.5665 68.104ZM36.5675 68.104C36.5675 66.984 36.4555 66.144 36.2315 65.584C36.0075 65.01 35.5525 64.723 34.8665 64.723C34.1665 64.723 33.7045 65.01 33.4805 65.584C33.2565 66.144 33.1445 66.984 33.1445 68.104C33.1445 69.238 33.2565 70.092 33.4805 70.666C33.7045 71.226 34.1665 71.506 34.8665 71.506C35.5525 71.506 36.0075 71.226 36.2315 70.666C36.4555 70.092 36.5675 69.238 36.5675 68.104ZM42.2398 64.66C42.2398 63.428 42.5898 62.49 43.2898 61.846C43.9898 61.188 44.9068 60.859 46.0408 60.859C47.1608 60.859 48.0638 61.188 48.7498 61.846C49.4498 62.49 49.7998 63.428 49.7998 64.66C49.7998 65.892 49.4498 66.83 48.7498 67.474C48.0638 68.118 47.1608 68.44 46.0408 68.44C44.9068 68.44 43.9898 68.118 43.2898 67.474C42.5898 66.83 42.2398 65.892 42.2398 64.66ZM57.8008 61.069L49.9678 76H45.5158L53.3488 61.069H57.8008ZM45.9988 63.568C45.5228 63.568 45.2848 63.932 45.2848 64.66C45.2848 65.374 45.5228 65.731 45.9988 65.731C46.2508 65.731 46.4398 65.64 46.5658 65.458C46.7058 65.276 46.7758 65.01 46.7758 64.66C46.7758 64.296 46.7058 64.023 46.5658 63.841C46.4398 63.659 46.2508 63.568 45.9988 63.568ZM53.5168 72.409C53.5168 71.177 53.8668 70.239 54.5668 69.595C55.2668 68.937 56.1768 68.608 57.2968 68.608C58.4308 68.608 59.3408 68.937 60.0268 69.595C60.7128 70.239 61.0558 71.177 61.0558 72.409C61.0558 73.641 60.7128 74.586 60.0268 75.244C59.3408 75.888 58.4308 76.21 57.2968 76.21C56.1768 76.21 55.2668 75.888 54.5668 75.244C53.8668 74.586 53.5168 73.641 53.5168 72.409ZM57.2758 71.317C56.7858 71.317 56.5408 71.681 56.5408 72.409C56.5408 73.137 56.7858 73.501 57.2758 73.501C57.5138 73.501 57.6958 73.41 57.8218 73.228C57.9618 73.046 58.0318 72.773 58.0318 72.409C58.0318 72.059 57.9618 71.793 57.8218 71.611C57.6958 71.415 57.5138 71.317 57.2758 71.317ZM73.3702 76.147C71.9702 76.147 70.6822 75.818 69.5062 75.16C68.3442 74.502 67.4202 73.592 66.7342 72.43C66.0482 71.268 65.7052 69.959 65.7052 68.503C65.7052 67.047 66.0482 65.738 66.7342 64.576C67.4202 63.414 68.3442 62.511 69.5062 61.867C70.6822 61.209 71.9702 60.88 73.3702 60.88C74.7702 60.88 76.0512 61.209 77.2132 61.867C78.3752 62.511 79.2922 63.414 79.9642 64.576C80.6502 65.738 80.9932 67.047 80.9932 68.503C80.9932 69.959 80.6502 71.268 79.9642 72.43C79.2922 73.592 78.3682 74.502 77.1922 75.16C76.0302 75.818 74.7562 76.147 73.3702 76.147ZM73.3702 71.8C74.2942 71.8 75.0082 71.506 75.5122 70.918C76.0162 70.316 76.2682 69.511 76.2682 68.503C76.2682 67.481 76.0162 66.676 75.5122 66.088C75.0082 65.486 74.2942 65.185 73.3702 65.185C72.4322 65.185 71.7112 65.486 71.2072 66.088C70.7032 66.676 70.4512 67.481 70.4512 68.503C70.4512 69.511 70.7032 70.316 71.2072 70.918C71.7112 71.506 72.4322 71.8 73.3702 71.8ZM89.5 63.316C89.248 63.288 89.073 63.274 88.975 63.274C88.625 63.274 88.359 63.344 88.177 63.484C87.995 63.61 87.869 63.834 87.799 64.156H89.5V68.041H87.757V76H83.095V68.041H81.835V64.156H83.095C83.123 62.616 83.606 61.426 84.544 60.586C85.496 59.732 86.826 59.305 88.534 59.305C88.73 59.305 89.052 59.319 89.5 59.347V63.316ZM97.5801 63.316C97.3281 63.288 97.1531 63.274 97.0551 63.274C96.7051 63.274 96.4391 63.344 96.2571 63.484C96.0751 63.61 95.9491 63.834 95.8791 64.156H97.5801V68.041H95.8371V76H91.1751V68.041H89.9151V64.156H91.1751C91.2031 62.616 91.6861 61.426 92.6241 60.586C93.5761 59.732 94.9061 59.305 96.6141 59.305C96.8101 59.305 97.1321 59.319 97.5801 59.347V63.316Z" fill="black"/>
<path d="M22.54 114L20.14 109.83H18.835V114H17.125V103.575H20.725C21.525 103.575 22.2 103.715 22.75 103.995C23.31 104.275 23.725 104.65 23.995 105.12C24.275 105.59 24.415 106.115 24.415 106.695C24.415 107.375 24.215 107.995 23.815 108.555C23.425 109.105 22.82 109.48 22 109.68L24.58 114H22.54ZM18.835 108.465H20.725C21.365 108.465 21.845 108.305 22.165 107.985C22.495 107.665 22.66 107.235 22.66 106.695C22.66 106.155 22.5 105.735 22.18 105.435C21.86 105.125 21.375 104.97 20.725 104.97H18.835V108.465ZM27.4725 104.64C27.1625 104.64 26.9025 104.535 26.6925 104.325C26.4825 104.115 26.3775 103.855 26.3775 103.545C26.3775 103.235 26.4825 102.975 26.6925 102.765C26.9025 102.555 27.1625 102.45 27.4725 102.45C27.7725 102.45 28.0275 102.555 28.2375 102.765C28.4475 102.975 28.5525 103.235 28.5525 103.545C28.5525 103.855 28.4475 104.115 28.2375 104.325C28.0275 104.535 27.7725 104.64 27.4725 104.64ZM28.3125 105.735V114H26.6025V105.735H28.3125ZM29.9876 109.83C29.9876 109 30.1576 108.265 30.4976 107.625C30.8476 106.985 31.3176 106.49 31.9076 106.14C32.5076 105.78 33.1726 105.6 33.9026 105.6C34.4426 105.6 34.9726 105.72 35.4926 105.96C36.0226 106.19 36.4426 106.5 36.7526 106.89V102.9H38.4776V114H36.7526V112.755C36.4726 113.155 36.0826 113.485 35.5826 113.745C35.0926 114.005 34.5276 114.135 33.8876 114.135C33.1676 114.135 32.5076 113.955 31.9076 113.595C31.3176 113.225 30.8476 112.715 30.4976 112.065C30.1576 111.405 29.9876 110.66 29.9876 109.83ZM36.7526 109.86C36.7526 109.29 36.6326 108.795 36.3926 108.375C36.1626 107.955 35.8576 107.635 35.4776 107.415C35.0976 107.195 34.6876 107.085 34.2476 107.085C33.8076 107.085 33.3976 107.195 33.0176 107.415C32.6376 107.625 32.3276 107.94 32.0876 108.36C31.8576 108.77 31.7426 109.26 31.7426 109.83C31.7426 110.4 31.8576 110.9 32.0876 111.33C32.3276 111.76 32.6376 112.09 33.0176 112.32C33.4076 112.54 33.8176 112.65 34.2476 112.65C34.6876 112.65 35.0976 112.54 35.4776 112.32C35.8576 112.1 36.1626 111.78 36.3926 111.36C36.6326 110.93 36.7526 110.43 36.7526 109.86ZM48.2986 109.665C48.2986 109.975 48.2786 110.255 48.2386 110.505H41.9236C41.9736 111.165 42.2186 111.695 42.6586 112.095C43.0986 112.495 43.6386 112.695 44.2786 112.695C45.1986 112.695 45.8486 112.31 46.2286 111.54H48.0736C47.8236 112.3 47.3686 112.925 46.7086 113.415C46.0586 113.895 45.2486 114.135 44.2786 114.135C43.4886 114.135 42.7786 113.96 42.1486 113.61C41.5286 113.25 41.0386 112.75 40.6786 112.11C40.3286 111.46 40.1536 110.71 40.1536 109.86C40.1536 109.01 40.3236 108.265 40.6636 107.625C41.0136 106.975 41.4986 106.475 42.1186 106.125C42.7486 105.775 43.4686 105.6 44.2786 105.6C45.0586 105.6 45.7536 105.77 46.3636 106.11C46.9736 106.45 47.4486 106.93 47.7886 107.55C48.1286 108.16 48.2986 108.865 48.2986 109.665ZM46.5136 109.125C46.5036 108.495 46.2786 107.99 45.8386 107.61C45.3986 107.23 44.8536 107.04 44.2036 107.04C43.6136 107.04 43.1086 107.23 42.6886 107.61C42.2686 107.98 42.0186 108.485 41.9386 109.125H46.5136ZM62.4429 114H60.7329L55.5879 106.215V114H53.8779V103.56H55.5879L60.7329 111.33V103.56H62.4429V114ZM68.2735 114.135C67.4935 114.135 66.7885 113.96 66.1585 113.61C65.5285 113.25 65.0335 112.75 64.6735 112.11C64.3135 111.46 64.1335 110.71 64.1335 109.86C64.1335 109.02 64.3185 108.275 64.6885 107.625C65.0585 106.975 65.5635 106.475 66.2035 106.125C66.8435 105.775 67.5585 105.6 68.3485 105.6C69.1385 105.6 69.8535 105.775 70.4935 106.125C71.1335 106.475 71.6385 106.975 72.0085 107.625C72.3785 108.275 72.5635 109.02 72.5635 109.86C72.5635 110.7 72.3735 111.445 71.9935 112.095C71.6135 112.745 71.0935 113.25 70.4335 113.61C69.7835 113.96 69.0635 114.135 68.2735 114.135ZM68.2735 112.65C68.7135 112.65 69.1235 112.545 69.5035 112.335C69.8935 112.125 70.2085 111.81 70.4485 111.39C70.6885 110.97 70.8085 110.46 70.8085 109.86C70.8085 109.26 70.6935 108.755 70.4635 108.345C70.2335 107.925 69.9285 107.61 69.5485 107.4C69.1685 107.19 68.7585 107.085 68.3185 107.085C67.8785 107.085 67.4685 107.19 67.0885 107.4C66.7185 107.61 66.4235 107.925 66.2035 108.345C65.9835 108.755 65.8735 109.26 65.8735 109.86C65.8735 110.75 66.0985 111.44 66.5485 111.93C67.0085 112.41 67.5835 112.65 68.2735 112.65ZM85.3539 105.735L82.7889 114H80.9889L79.3239 107.895L77.6589 114H75.8589L73.2789 105.735H75.0189L76.7439 112.38L78.4989 105.735H80.2839L81.9639 112.35L83.6739 105.735H85.3539ZM92.5233 107.13V111.705C92.5233 112.015 92.5933 112.24 92.7333 112.38C92.8833 112.51 93.1333 112.575 93.4833 112.575H94.5333V114H93.1833C92.4133 114 91.8233 113.82 91.4133 113.46C91.0033 113.1 90.7983 112.515 90.7983 111.705V107.13H89.8233V105.735H90.7983V103.68H92.5233V105.735H94.5333V107.13H92.5233ZM99.6944 114.135C98.9144 114.135 98.2094 113.96 97.5794 113.61C96.9494 113.25 96.4544 112.75 96.0944 112.11C95.7344 111.46 95.5544 110.71 95.5544 109.86C95.5544 109.02 95.7394 108.275 96.1094 107.625C96.4794 106.975 96.9844 106.475 97.6244 106.125C98.2644 105.775 98.9794 105.6 99.7694 105.6C100.559 105.6 101.274 105.775 101.914 106.125C102.554 106.475 103.059 106.975 103.429 107.625C103.799 108.275 103.984 109.02 103.984 109.86C103.984 110.7 103.794 111.445 103.414 112.095C103.034 112.745 102.514 113.25 101.854 113.61C101.204 113.96 100.484 114.135 99.6944 114.135ZM99.6944 112.65C100.134 112.65 100.544 112.545 100.924 112.335C101.314 112.125 101.629 111.81 101.869 111.39C102.109 110.97 102.229 110.46 102.229 109.86C102.229 109.26 102.114 108.755 101.884 108.345C101.654 107.925 101.349 107.61 100.969 107.4C100.589 107.19 100.179 107.085 99.7394 107.085C99.2994 107.085 98.8894 107.19 98.5094 107.4C98.1394 107.61 97.8444 107.925 97.6244 108.345C97.4044 108.755 97.2944 109.26 97.2944 109.86C97.2944 110.75 97.5194 111.44 97.9694 111.93C98.4294 112.41 99.0044 112.65 99.6944 112.65ZM114.986 114L112.586 109.83H111.281V114H109.571V103.575H113.171C113.971 103.575 114.646 103.715 115.196 103.995C115.756 104.275 116.171 104.65 116.441 105.12C116.721 105.59 116.861 106.115 116.861 106.695C116.861 107.375 116.661 107.995 116.261 108.555C115.871 109.105 115.266 109.48 114.446 109.68L117.026 114H114.986ZM111.281 108.465H113.171C113.811 108.465 114.291 108.305 114.611 107.985C114.941 107.665 115.106 107.235 115.106 106.695C115.106 106.155 114.946 105.735 114.626 105.435C114.306 105.125 113.821 104.97 113.171 104.97H111.281V108.465ZM126.624 109.665C126.624 109.975 126.604 110.255 126.564 110.505H120.249C120.299 111.165 120.544 111.695 120.984 112.095C121.424 112.495 121.964 112.695 122.604 112.695C123.524 112.695 124.174 112.31 124.554 111.54H126.399C126.149 112.3 125.694 112.925 125.034 113.415C124.384 113.895 123.574 114.135 122.604 114.135C121.814 114.135 121.104 113.96 120.474 113.61C119.854 113.25 119.364 112.75 119.004 112.11C118.654 111.46 118.479 110.71 118.479 109.86C118.479 109.01 118.649 108.265 118.989 107.625C119.339 106.975 119.824 106.475 120.444 106.125C121.074 105.775 121.794 105.6 122.604 105.6C123.384 105.6 124.079 105.77 124.689 106.11C125.299 106.45 125.774 106.93 126.114 107.55C126.454 108.16 126.624 108.865 126.624 109.665ZM124.839 109.125C124.829 108.495 124.604 107.99 124.164 107.61C123.724 107.23 123.179 107.04 122.529 107.04C121.939 107.04 121.434 107.23 121.014 107.61C120.594 107.98 120.344 108.485 120.264 109.125H124.839ZM127.737 109.83C127.737 109 127.907 108.265 128.247 107.625C128.597 106.985 129.067 106.49 129.657 106.14C130.257 105.78 130.922 105.6 131.652 105.6C132.192 105.6 132.722 105.72 133.242 105.96C133.772 106.19 134.192 106.5 134.502 106.89V102.9H136.227V114H134.502V112.755C134.222 113.155 133.832 113.485 133.332 113.745C132.842 114.005 132.277 114.135 131.637 114.135C130.917 114.135 130.257 113.955 129.657 113.595C129.067 113.225 128.597 112.715 128.247 112.065C127.907 111.405 127.737 110.66 127.737 109.83ZM134.502 109.86C134.502 109.29 134.382 108.795 134.142 108.375C133.912 107.955 133.607 107.635 133.227 107.415C132.847 107.195 132.437 107.085 131.997 107.085C131.557 107.085 131.147 107.195 130.767 107.415C130.387 107.625 130.077 107.94 129.837 108.36C129.607 108.77 129.492 109.26 129.492 109.83C129.492 110.4 129.607 110.9 129.837 111.33C130.077 111.76 130.387 112.09 130.767 112.32C131.157 112.54 131.567 112.65 131.997 112.65C132.437 112.65 132.847 112.54 133.227 112.32C133.607 112.1 133.912 111.78 134.142 111.36C134.382 110.93 134.502 110.43 134.502 109.86ZM146.048 109.665C146.048 109.975 146.028 110.255 145.988 110.505H139.673C139.723 111.165 139.968 111.695 140.408 112.095C140.848 112.495 141.388 112.695 142.028 112.695C142.948 112.695 143.598 112.31 143.978 111.54H145.823C145.573 112.3 145.118 112.925 144.458 113.415C143.808 113.895 142.998 114.135 142.028 114.135C141.238 114.135 140.528 113.96 139.898 113.61C139.278 113.25 138.788 112.75 138.428 112.11C138.078 111.46 137.903 110.71 137.903 109.86C137.903 109.01 138.073 108.265 138.413 107.625C138.763 106.975 139.248 106.475 139.868 106.125C140.498 105.775 141.218 105.6 142.028 105.6C142.808 105.6 143.503 105.77 144.113 106.11C144.723 106.45 145.198 106.93 145.538 107.55C145.878 108.16 146.048 108.865 146.048 109.665ZM144.263 109.125C144.253 108.495 144.028 107.99 143.588 107.61C143.148 107.23 142.603 107.04 141.953 107.04C141.363 107.04 140.858 107.23 140.438 107.61C140.018 107.98 139.768 108.485 139.688 109.125H144.263ZM155.305 109.665C155.305 109.975 155.285 110.255 155.245 110.505H148.93C148.98 111.165 149.225 111.695 149.665 112.095C150.105 112.495 150.645 112.695 151.285 112.695C152.205 112.695 152.855 112.31 153.235 111.54H155.08C154.83 112.3 154.375 112.925 153.715 113.415C153.065 113.895 152.255 114.135 151.285 114.135C150.495 114.135 149.785 113.96 149.155 113.61C148.535 113.25 148.045 112.75 147.685 112.11C147.335 111.46 147.16 110.71 147.16 109.86C147.16 109.01 147.33 108.265 147.67 107.625C148.02 106.975 148.505 106.475 149.125 106.125C149.755 105.775 150.475 105.6 151.285 105.6C152.065 105.6 152.76 105.77 153.37 106.11C153.98 106.45 154.455 106.93 154.795 107.55C155.135 108.16 155.305 108.865 155.305 109.665ZM153.52 109.125C153.51 108.495 153.285 107.99 152.845 107.61C152.405 107.23 151.86 107.04 151.21 107.04C150.62 107.04 150.115 107.23 149.695 107.61C149.275 107.98 149.025 108.485 148.945 109.125H153.52ZM166.993 105.6C167.643 105.6 168.223 105.735 168.733 106.005C169.253 106.275 169.658 106.675 169.948 107.205C170.248 107.735 170.398 108.375 170.398 109.125V114H168.703V109.38C168.703 108.64 168.518 108.075 168.148 107.685C167.778 107.285 167.273 107.085 166.633 107.085C165.993 107.085 165.483 107.285 165.103 107.685C164.733 108.075 164.548 108.64 164.548 109.38V114H162.853V109.38C162.853 108.64 162.668 108.075 162.298 107.685C161.928 107.285 161.423 107.085 160.783 107.085C160.143 107.085 159.633 107.285 159.253 107.685C158.883 108.075 158.698 108.64 158.698 109.38V114H156.988V105.735H158.698V106.68C158.978 106.34 159.333 106.075 159.763 105.885C160.193 105.695 160.653 105.6 161.143 105.6C161.803 105.6 162.393 105.74 162.913 106.02C163.433 106.3 163.833 106.705 164.113 107.235C164.363 106.735 164.753 106.34 165.283 106.05C165.813 105.75 166.383 105.6 166.993 105.6Z" fill="black"/>
<g clip-path="url(#clip0_285_3063)">
<path d="M46.6659 34.1403C47.3018 34.6999 48.1418 34.9826 49.1859 34.9826C50.0201 34.9826 50.8484 34.821 51.6826 34.498V39.5749C50.9418 39.8057 50.1484 40.0018 49.3201 40.1634C48.4859 40.3249 47.6576 40.4057 46.8234 40.4057C45.8726 40.4057 44.9684 40.2903 44.1051 40.0537C43.2418 39.8172 42.4718 39.4134 41.7893 38.8422C41.1068 38.271 40.5643 37.5037 40.1618 36.5518C39.7593 35.5999 39.5609 34.4114 39.5609 33.0037V23.1268H36.3934V19.0249L39.5609 17.7037V12.8057H45.7151V17.698H51.6884V23.121H45.7151V31.7518C45.7151 32.7845 46.0359 33.5807 46.6718 34.1403H46.6659Z" fill="black"/>
<path d="M68.6167 17.698H74.7709V39.5634H69.5092L68.6167 37.8903C67.905 38.3922 67.0942 38.7961 66.19 39.1018C65.2859 39.4076 64.3117 39.5634 63.2675 39.5634C62.4625 39.5634 61.5525 39.448 60.5259 39.2115C59.4992 38.9749 58.5425 38.5365 57.65 37.8903C56.7575 37.2442 56.005 36.3499 55.3984 35.2018C54.7917 34.0538 54.4825 32.5711 54.4825 30.748V17.698H60.6367V30.4942C60.6367 31.1692 60.7475 31.7403 60.975 32.2076C61.1967 32.6749 61.5 33.0499 61.8734 33.3268C62.2467 33.6038 62.6725 33.8115 63.1509 33.9442C63.6292 34.0768 64.1192 34.1403 64.6325 34.1403C65.0234 34.1403 65.4492 34.0768 65.91 33.9442C66.3709 33.8115 66.8084 33.598 67.2109 33.3095C67.6134 33.0153 67.9517 32.6345 68.22 32.1672C68.4884 31.6999 68.6225 31.1403 68.6225 30.4942V17.698H68.6167Z" fill="black"/>
<path d="M87.9427 34.1403C88.5785 34.6999 89.4185 34.9826 90.4627 34.9826C91.2968 34.9826 92.1252 34.821 92.9593 34.498V39.5749C92.2185 39.8057 91.4252 40.0018 90.5968 40.1634C89.7627 40.3249 88.9343 40.4057 88.1002 40.4057C87.1493 40.4057 86.2452 40.2903 85.3818 40.0537C84.5185 39.8172 83.7485 39.4134 83.066 38.8422C82.3835 38.271 81.841 37.5037 81.4385 36.5518C81.036 35.5999 80.8377 34.4114 80.8377 33.0037V23.1268H77.6702V19.0249L80.8377 17.7037V12.8057H86.9918V17.698H92.9652V23.121H86.9918V31.7518C86.9918 32.7845 87.3127 33.5807 87.9485 34.1403H87.9427Z" fill="black"/>
<path d="M97.6259 16.9942L96.8734 15.7134H96.3775V16.9942H95.9634V13.873H96.9842C97.2234 13.873 97.4275 13.9134 97.5909 13.9942C97.7542 14.075 97.8767 14.1846 97.9584 14.323C98.04 14.4615 98.0809 14.6173 98.0809 14.7961C98.0809 15.0096 98.0167 15.2 97.8942 15.3673C97.7659 15.5288 97.5792 15.6384 97.3284 15.6961L98.1217 17.0057H97.6259V16.9942ZM96.3775 15.3904H96.9842C97.2059 15.3904 97.375 15.3384 97.4859 15.2288C97.5967 15.1192 97.655 14.975 97.655 14.7904C97.655 14.6057 97.6025 14.4615 97.4917 14.3577C97.3809 14.2538 97.2117 14.2077 96.9842 14.2077H96.3775V15.3904Z" fill="black"/>
<path d="M97.0425 17.7268C98.3215 17.7268 99.3583 16.7013 99.3583 15.4364C99.3583 14.1714 98.3215 13.146 97.0425 13.146C95.7635 13.146 94.7267 14.1714 94.7267 15.4364C94.7267 16.7013 95.7635 17.7268 97.0425 17.7268Z" stroke="black" stroke-width="0.75" stroke-miterlimit="10"/>
<path d="M19.8034 40.4V17.3H16.5834V15.425H25.1059V17.3H21.8859V40.4058H19.8034V40.4Z" fill="black"/>
<path d="M22.9183 18.9614C22.9183 19.071 22.9183 19.1749 22.9183 19.2845C22.9183 21.696 22.9183 24.096 22.9125 26.4903C22.9008 28.8845 22.8833 31.2614 22.8658 33.6268C22.8658 34.3018 22.7025 34.798 22.3817 35.1153C22.0608 35.4326 21.5475 35.5941 20.8417 35.5941C20.1358 35.5941 19.6458 35.4326 19.3133 35.1153C18.975 34.798 18.8058 34.3018 18.8058 33.6268C18.7825 31.2672 18.7708 28.8845 18.7592 26.4903C18.7475 24.096 18.7533 21.696 18.765 19.2845C18.765 19.1749 18.765 19.071 18.765 18.9614H16.6708C16.6708 20.2133 16.6592 21.471 16.6592 22.723C16.6592 26.2537 16.6825 29.7787 16.7233 33.3095C16.7525 34.746 17.085 35.7787 17.715 36.4076C18.345 37.0364 19.3892 37.3537 20.8417 37.3537C22.2942 37.3537 23.3558 37.0364 23.9917 36.4076C24.6275 35.7787 24.9542 34.746 24.96 33.3095C25.0008 29.7787 25.0242 26.2537 25.0242 22.723C25.0242 21.4653 25.0183 20.2133 25.0125 18.9614H22.9125H22.9183Z" fill="black"/>
<path d="M18.7768 12.1538H16.6768V13.7865H18.7768V12.1538Z" fill="black"/>
<path d="M25.0242 12.1538H22.9242V13.7865H25.0242V12.1538Z" fill="black"/>
</g>
<defs>
<linearGradient id="paint0_linear_285_3063" x1="330.213" y1="146.77" x2="330.213" y2="79.4335" gradientUnits="userSpaceOnUse">
<stop stop-color="#C6C6C6"/>
<stop offset="0.11" stop-color="#CBCBCB"/>
<stop offset="0.66" stop-color="#E4E4E4"/>
<stop offset="1" stop-color="#EDEDED"/>
</linearGradient>
<linearGradient id="paint1_linear_285_3063" x1="338.53" y1="133.974" x2="338.53" y2="47.2358" gradientUnits="userSpaceOnUse">
<stop stop-color="#9D9D9C"/>
<stop offset="1" stop-color="#B2B2B2"/>
</linearGradient>
<linearGradient id="paint2_linear_285_3063" x1="338.752" y1="133.974" x2="338.752" y2="68.0361" gradientUnits="userSpaceOnUse">
<stop stop-color="#3C3C3B"/>
<stop offset="1" stop-color="#706F6F"/>
</linearGradient>
<linearGradient id="paint3_linear_285_3063" x1="330.468" y1="81.8981" x2="330.468" y2="74.7495" gradientUnits="userSpaceOnUse">
<stop stop-color="#1AC6D9"/>
<stop offset="0.12" stop-color="#11D0E5"/>
<stop offset="0.33" stop-color="#07DCF4"/>
<stop offset="0.58" stop-color="#01E3FC"/>
<stop offset="1" stop-color="#00E6FF"/>
</linearGradient>
<linearGradient id="paint4_linear_285_3063" x1="330.468" y1="81.8981" x2="330.468" y2="74.7495" gradientUnits="userSpaceOnUse">
<stop stop-color="#2581C4" stop-opacity="0"/>
<stop offset="1" stop-color="#312783"/>
</linearGradient>
<linearGradient id="paint5_linear_285_3063" x1="157.784" y1="103.777" x2="297.795" y2="103.777" gradientUnits="userSpaceOnUse">
<stop stop-color="white"/>
<stop offset="1" stop-color="#D6D6D6"/>
</linearGradient>
<linearGradient id="paint6_linear_285_3063" x1="260.653" y1="100.258" x2="260.653" y2="82.8184" gradientUnits="userSpaceOnUse">
<stop stop-color="#243852"/>
<stop offset="0.37" stop-color="#233A54"/>
<stop offset="0.59" stop-color="#22405C"/>
<stop offset="0.77" stop-color="#1F4C6B"/>
<stop offset="0.93" stop-color="#1C5C7F"/>
<stop offset="1" stop-color="#1B658A"/>
</linearGradient>
<linearGradient id="paint7_linear_285_3063" x1="198.926" y1="97.4966" x2="235.977" y2="83.9308" gradientUnits="userSpaceOnUse">
<stop stop-color="#2DAEE0"/>
<stop offset="0.23" stop-color="#2CAADB"/>
<stop offset="0.47" stop-color="#299FCF"/>
<stop offset="0.72" stop-color="#258DBA"/>
<stop offset="0.96" stop-color="#1F749D"/>
<stop offset="1" stop-color="#1E7099"/>
</linearGradient>
<linearGradient id="paint8_linear_285_3063" x1="241.698" y1="115.467" x2="279.365" y2="90.1493" gradientUnits="userSpaceOnUse">
<stop stop-color="#B2B2B2"/>
<stop offset="1" stop-color="#808080"/>
</linearGradient>
<linearGradient id="paint9_linear_285_3063" x1="246.26" y1="122.253" x2="283.928" y2="96.935" gradientUnits="userSpaceOnUse">
<stop stop-color="#B2B2B2"/>
<stop offset="1" stop-color="#808080"/>
</linearGradient>
<linearGradient id="paint10_linear_285_3063" x1="246.805" y1="123.061" x2="284.47" y2="97.7438" gradientUnits="userSpaceOnUse">
<stop stop-color="#B2B2B2"/>
<stop offset="1" stop-color="#808080"/>
</linearGradient>
<clipPath id="clip0_285_3063">
<rect width="82.9908" height="28.2462" fill="white" transform="translate(16.5834 12.1538)"/>
</clipPath>
</defs>
</svg>
