<svg width="34" height="34" viewBox="0 0 34 34" fill="none" xmlns="http://www.w3.org/2000/svg">
<path d="M13.1188 22.095C13.1188 19.3787 10.9091 17.1687 8.19297 17.1687C5.47689 17.1687 3.26709 19.3786 3.26709 22.095C3.26709 24.8115 5.47682 27.0214 8.19297 27.0214C10.9091 27.0214 13.1188 24.8114 13.1188 22.095ZM4.59521 22.095C4.59521 20.111 6.20915 18.4968 8.19297 18.4968C10.1767 18.4968 11.7907 20.111 11.7907 22.095C11.7907 24.0791 10.1767 25.6933 8.19297 25.6933C6.20915 25.6933 4.59521 24.0791 4.59521 22.095Z" fill="#FBC403"/>
<path d="M27.7615 8.79246C27.7615 6.27028 25.7097 4.21826 23.1877 4.21826C20.6658 4.21826 18.614 6.27022 18.614 8.79246C18.614 11.3146 20.6658 13.3667 23.1877 13.3667C25.7097 13.3667 27.7615 11.3146 27.7615 8.79246ZM19.9421 8.79246C19.9421 7.00254 21.3981 5.54639 23.1877 5.54639C24.9774 5.54639 26.4333 7.00254 26.4333 8.79246C26.4333 10.5824 24.9774 12.0385 23.1877 12.0385C21.398 12.0385 19.9421 10.5823 19.9421 8.79246Z" fill="#FBC403"/>
<path d="M21.5138 22.7591H31.2804C32.78 22.7591 34 21.539 34 20.0392C34 18.5395 32.78 17.3194 31.2804 17.3194H24.4052L25.1935 16.0952C26.7211 15.6755 28.0991 14.7706 29.0968 13.5262C30.1684 12.1899 30.7586 10.5087 30.7586 8.79241C30.7586 4.61732 27.3622 1.2207 23.1877 1.2207C19.0131 1.2207 15.6168 4.61732 15.6168 8.79241C15.6168 10.5087 16.207 12.1899 17.2786 13.5263C18.2764 14.7705 19.6544 15.6755 21.1819 16.0952L22.6245 18.3355C22.7436 18.5272 22.9587 18.6484 23.1877 18.6476H31.2803C32.0476 18.6476 32.6718 19.2719 32.6718 20.0393C32.6718 20.8067 32.0476 21.431 31.2803 21.431H21.5138C19.9727 21.431 18.7189 22.6849 18.7189 24.2262C18.7189 24.9728 19.0095 25.6747 19.5373 26.2027C20.065 26.7307 20.767 27.0215 21.5135 27.0214C23.4611 27.0213 26.3575 27.0213 28.5104 27.021C29.1021 27.0209 29.6578 27.2516 30.0752 27.6704C30.4939 28.0907 30.7244 28.6515 30.7244 29.2497V29.322C30.7244 29.8907 30.503 30.4254 30.1009 30.8275C29.6988 31.2296 29.1642 31.451 28.5957 31.451L9.4103 31.4499L10.3413 30.0039C12.0032 29.5523 13.5028 28.5703 14.5874 27.2178C15.7471 25.7717 16.3857 23.9524 16.3857 22.095C16.3857 17.577 12.7104 13.9012 8.19287 13.9012C3.67532 13.9012 0 17.577 0 22.095C0 23.9524 0.638629 25.7717 1.79835 27.2178C2.88289 28.5703 4.38261 29.5523 6.04443 30.0039L7.62981 32.466C7.74881 32.6574 7.96344 32.7787 8.1928 32.7779L28.5955 32.7791H28.5957C29.519 32.7791 30.3871 32.4196 31.04 31.7666C31.6929 31.1137 32.0525 30.2455 32.0525 29.322V29.2498C32.0525 28.2977 31.6843 27.404 31.016 26.7331C30.3476 26.0623 29.4579 25.6929 28.5106 25.6929H28.5102C26.3573 25.6932 23.461 25.6933 21.5134 25.6933C21.1217 25.6933 20.7534 25.5408 20.4764 25.2638C20.1995 24.9867 20.0469 24.6182 20.0469 24.2263C20.047 23.4172 20.7049 22.7591 21.5138 22.7591ZM21.7513 14.87C18.9214 14.2038 16.945 11.7046 16.945 8.79241C16.945 5.34971 19.7454 2.54883 23.1877 2.54883C26.63 2.54883 29.4305 5.34971 29.4305 8.79241C29.4305 11.7047 27.4541 14.2038 24.6242 14.87C24.4568 14.9094 24.3112 15.0122 24.2181 15.1569L23.1877 16.7569L22.1574 15.1569C22.0643 15.0122 21.9186 14.9094 21.7513 14.87ZM6.61347 28.7782C3.50154 28.0456 1.32812 25.2973 1.32812 22.095C1.32812 18.3093 4.40765 15.2294 8.19294 15.2294C11.9782 15.2294 15.0577 18.3093 15.0577 22.095C15.0577 25.2974 12.8843 28.0456 9.77234 28.7782C9.60493 28.8177 9.4593 28.9205 9.3662 29.0651L8.19294 30.8872L7.01954 29.065C6.9265 28.9205 6.78081 28.8176 6.61347 28.7782Z" fill="#FBC403"/>
</svg>
