<svg width="32" height="32" viewBox="0 0 32 32" fill="none" xmlns="http://www.w3.org/2000/svg">
<g clip-path="url(#clip0_280_2875)">
<path d="M22.3174 12.6638H9.68262C9.40298 12.6638 9.17627 12.8905 9.17627 13.1702C9.17627 13.4498 9.40298 13.6765 9.68262 13.6765H22.3174C22.5971 13.6765 22.8238 13.4498 22.8238 13.1702C22.8238 12.8905 22.597 12.6638 22.3174 12.6638Z" fill="#FBC403"/>
<path d="M4.40417 14.9592H2.53284C2.2532 14.9592 2.02649 15.1859 2.02649 15.4656C2.02649 15.7452 2.2532 15.9719 2.53284 15.9719H4.40417C5.32889 15.9719 6.10867 16.6047 6.33335 17.4599H2.66253C2.38289 17.4599 2.15618 17.6866 2.15618 17.9663C2.15618 18.2459 2.38289 18.4726 2.66253 18.4726H6.90472C7.18436 18.4726 7.41107 18.2459 7.41107 17.9663C7.41113 16.3081 6.06222 14.9592 4.40417 14.9592Z" fill="#FBC403"/>
<path d="M27.5958 15.9719H29.4672C29.7468 15.9719 29.9735 15.7452 29.9735 15.4656C29.9735 15.1859 29.7468 14.9592 29.4672 14.9592H27.5958C25.9378 14.9592 24.5889 16.3081 24.5889 17.9663C24.5889 18.2459 24.8156 18.4726 25.0952 18.4726H29.3374C29.617 18.4726 29.8438 18.2459 29.8438 17.9663C29.8438 17.6866 29.617 17.4599 29.3374 17.4599H25.6666C25.8913 16.6047 26.6711 15.9719 27.5958 15.9719Z" fill="#FBC403"/>
<path d="M30.9667 12.7339C30.2569 11.9921 29.2931 11.5836 28.2526 11.5836C28.2071 11.5836 28.1617 11.5897 28.1178 11.6019L26.4905 12.0515L24.0934 7.44613C23.6642 6.62166 22.5999 5.97583 21.6705 5.97583H10.3294C9.39993 5.97583 8.33572 6.62166 7.90654 7.44613L5.50936 12.0515L3.88209 11.6019C3.8382 11.5897 3.79283 11.5836 3.74726 11.5836C2.70682 11.5836 1.74293 11.9921 1.03324 12.7339C0.323538 13.4757 -0.0421131 14.4566 0.00386333 15.4991L0.371337 22.8256C0.38484 23.095 0.607296 23.3066 0.877078 23.3066H1.04586V25.5176C1.04586 25.7973 1.27257 26.024 1.55221 26.024H6.87974C7.15938 26.024 7.38609 25.7973 7.38609 25.5176V24.8256C7.38609 24.546 7.15938 24.3193 6.87974 24.3193C6.6001 24.3193 6.37339 24.546 6.37339 24.8256V25.0113H2.05849V23.3066H29.9414V25.0113H25.6266V24.8256C25.6266 24.546 25.3999 24.3193 25.1202 24.3193C24.8406 24.3193 24.6139 24.546 24.6139 24.8256V25.5176C24.6139 25.7973 24.8406 26.024 25.1202 26.024H30.4478C30.7274 26.024 30.9541 25.7973 30.9541 25.5176V23.3066H31.1229C31.3927 23.3066 31.6151 23.0951 31.6286 22.8256L31.9962 15.4961C32.0421 14.4566 31.6764 13.4757 30.9667 12.7339ZM30.9846 15.4484L30.6413 22.2938H1.35865L1.01548 15.4514C0.981926 14.6907 1.24806 13.9742 1.76501 13.4341C2.2669 12.9095 2.94527 12.6138 3.68137 12.5972L5.62939 13.1354C5.63061 13.1357 5.63182 13.1361 5.63311 13.1364L7.52239 13.6583C7.79184 13.7328 8.0708 13.5747 8.14527 13.3051C8.21974 13.0356 8.06162 12.7567 7.79204 12.6822L6.50754 12.3274L8.80487 7.91386C9.06142 7.42102 9.77382 6.98866 10.3295 6.98866H21.6706C22.2261 6.98866 22.9386 7.42102 23.1952 7.91386L25.4925 12.3274L24.208 12.6822C23.9384 12.7567 23.7803 13.0356 23.8548 13.3051C23.9292 13.5747 24.2081 13.7327 24.4776 13.6583L28.3187 12.5972C29.0548 12.6139 29.7331 12.9096 30.235 13.4341C30.7519 13.9742 31.018 14.6907 30.9846 15.4484Z" fill="#FBC403"/>
<path d="M28.2527 10.571H30.0167C30.2963 10.571 30.523 10.3443 30.523 10.0647C30.523 9.78506 30.2963 9.55835 30.0167 9.55835H28.2527C27.973 9.55835 27.7463 9.78506 27.7463 10.0647C27.7463 10.3443 27.973 10.571 28.2527 10.571Z" fill="#FBC403"/>
<path d="M1.98328 10.571H3.74726C4.0269 10.571 4.25361 10.3443 4.25361 10.0647C4.25361 9.78506 4.0269 9.55835 3.74726 9.55835H1.98328C1.70364 9.55835 1.47693 9.78506 1.47693 10.0647C1.47693 10.3443 1.70364 10.571 1.98328 10.571Z" fill="#FBC403"/>
<path d="M21.6161 18.915H10.3839C10.1043 18.915 9.87756 19.1417 9.87756 19.4214V20.7747C9.87756 21.0543 10.1043 21.281 10.3839 21.281C10.6636 21.281 10.8903 21.0543 10.8903 20.7747V19.9277H21.1098V20.7747C21.1098 21.0543 21.3365 21.281 21.6161 21.281C21.8958 21.281 22.1225 21.0543 22.1225 20.7747V19.4214C22.1225 19.1417 21.8958 18.915 21.6161 18.915Z" fill="#FBC403"/>
<path d="M18.808 16.3772C19.0877 16.3772 19.3144 16.1505 19.3144 15.8709C19.3144 15.5912 19.0877 15.3645 18.808 15.3645H13.1919C12.9123 15.3645 12.6855 15.5912 12.6855 15.8709C12.6855 16.1505 12.9123 16.3772 13.1919 16.3772H18.808Z" fill="#FBC403"/>
</g>
<defs>
<clipPath id="clip0_280_2875">
<rect width="32" height="32" fill="white"/>
</clipPath>
</defs>
</svg>
