<svg width="34" height="36" viewBox="0 0 34 36" fill="none" xmlns="http://www.w3.org/2000/svg">
<path d="M22.3174 16.6638H9.68262C9.40298 16.6638 9.17627 16.8905 9.17627 17.1702C9.17627 17.4498 9.40298 17.6765 9.68262 17.6765H22.3174C22.5971 17.6765 22.8238 17.4498 22.8238 17.1702C22.8238 16.8905 22.597 16.6638 22.3174 16.6638Z" fill="#FBC403"/>
<path d="M4.40417 18.9592H2.53284C2.2532 18.9592 2.02649 19.1859 2.02649 19.4656C2.02649 19.7452 2.2532 19.9719 2.53284 19.9719H4.40417C5.32889 19.9719 6.10867 20.6047 6.33335 21.4599H2.66253C2.38289 21.4599 2.15618 21.6866 2.15618 21.9663C2.15618 22.2459 2.38289 22.4726 2.66253 22.4726H6.90472C7.18436 22.4726 7.41107 22.2459 7.41107 21.9663C7.41113 20.3081 6.06222 18.9592 4.40417 18.9592Z" fill="#FBC403"/>
<path d="M27.5958 19.9719H29.4672C29.7468 19.9719 29.9735 19.7452 29.9735 19.4656C29.9735 19.1859 29.7468 18.9592 29.4672 18.9592H27.5958C25.9378 18.9592 24.5889 20.3081 24.5889 21.9663C24.5889 22.2459 24.8156 22.4726 25.0952 22.4726H29.3374C29.617 22.4726 29.8438 22.2459 29.8438 21.9663C29.8438 21.6866 29.617 21.4599 29.3374 21.4599H25.6666C25.8913 20.6047 26.6711 19.9719 27.5958 19.9719Z" fill="#FBC403"/>
<path d="M30.9667 16.7339C30.2569 15.9921 29.2931 15.5836 28.2526 15.5836C28.2071 15.5836 28.1617 15.5897 28.1178 15.6019L26.4905 16.0515L24.0934 11.4461C23.6642 10.6217 22.5999 9.97583 21.6705 9.97583H10.3294C9.39993 9.97583 8.33572 10.6217 7.90654 11.4461L5.50936 16.0515L3.88209 15.6019C3.8382 15.5897 3.79283 15.5836 3.74726 15.5836C2.70682 15.5836 1.74293 15.9921 1.03324 16.7339C0.323538 17.4757 -0.0421131 18.4566 0.00386333 19.4991L0.371337 26.8256C0.38484 27.095 0.607296 27.3066 0.877078 27.3066H1.04586V29.5176C1.04586 29.7973 1.27257 30.024 1.55221 30.024H6.87974C7.15938 30.024 7.38609 29.7973 7.38609 29.5176V28.8256C7.38609 28.546 7.15938 28.3193 6.87974 28.3193C6.6001 28.3193 6.37339 28.546 6.37339 28.8256V29.0113H2.05849V27.3066H29.9414V29.0113H25.6266V28.8256C25.6266 28.546 25.3999 28.3193 25.1202 28.3193C24.8406 28.3193 24.6139 28.546 24.6139 28.8256V29.5176C24.6139 29.7973 24.8406 30.024 25.1202 30.024H30.4478C30.7274 30.024 30.9541 29.7973 30.9541 29.5176V27.3066H31.1229C31.3927 27.3066 31.6151 27.0951 31.6286 26.8256L31.9962 19.4961C32.0421 18.4566 31.6764 17.4757 30.9667 16.7339ZM30.9846 19.4484L30.6413 26.2938H1.35865L1.01548 19.4514C0.981926 18.6907 1.24806 17.9742 1.76501 17.4341C2.2669 16.9095 2.94527 16.6138 3.68137 16.5972L5.62939 17.1354C5.63061 17.1357 5.63182 17.1361 5.63311 17.1364L7.52239 17.6583C7.79184 17.7328 8.0708 17.5747 8.14527 17.3051C8.21974 17.0356 8.06162 16.7567 7.79204 16.6822L6.50754 16.3274L8.80487 11.9139C9.06142 11.421 9.77382 10.9887 10.3295 10.9887H21.6706C22.2261 10.9887 22.9386 11.421 23.1952 11.9139L25.4925 16.3274L24.208 16.6822C23.9384 16.7567 23.7803 17.0356 23.8548 17.3051C23.9292 17.5747 24.2081 17.7327 24.4776 17.6583L28.3187 16.5972C29.0548 16.6139 29.7331 16.9096 30.235 17.4341C30.7519 17.9742 31.018 18.6907 30.9846 19.4484Z" fill="#FBC403"/>
<path d="M28.2527 14.571H30.0167C30.2963 14.571 30.523 14.3443 30.523 14.0647C30.523 13.7851 30.2963 13.5583 30.0167 13.5583H28.2527C27.973 13.5583 27.7463 13.7851 27.7463 14.0647C27.7463 14.3443 27.973 14.571 28.2527 14.571Z" fill="#FBC403"/>
<path d="M1.98328 14.571H3.74726C4.0269 14.571 4.25361 14.3443 4.25361 14.0647C4.25361 13.7851 4.0269 13.5583 3.74726 13.5583H1.98328C1.70364 13.5583 1.47693 13.7851 1.47693 14.0647C1.47693 14.3443 1.70364 14.571 1.98328 14.571Z" fill="#FBC403"/>
<path d="M21.6161 22.915H10.3839C10.1043 22.915 9.87756 23.1417 9.87756 23.4214V24.7747C9.87756 25.0543 10.1043 25.281 10.3839 25.281C10.6636 25.281 10.8903 25.0543 10.8903 24.7747V23.9277H21.1098V24.7747C21.1098 25.0543 21.3365 25.281 21.6161 25.281C21.8958 25.281 22.1225 25.0543 22.1225 24.7747V23.4214C22.1225 23.1417 21.8958 22.915 21.6161 22.915Z" fill="#FBC403"/>
<path d="M18.808 20.3772C19.0877 20.3772 19.3144 20.1505 19.3144 19.8709C19.3144 19.5912 19.0877 19.3645 18.808 19.3645H13.1919C12.9123 19.3645 12.6855 19.5912 12.6855 19.8709C12.6855 20.1505 12.9123 20.3772 13.1919 20.3772H18.808Z" fill="#FBC403"/>
<path d="M31.4312 3.8475L32.0162 3.26625C32.0512 3.23129 32.0789 3.18978 32.0979 3.14409C32.1168 3.09841 32.1265 3.04945 32.1265 3C32.1265 2.95055 32.1168 2.90159 32.0979 2.85591C32.0789 2.81022 32.0512 2.76871 32.0162 2.73375C31.9813 2.69879 31.9398 2.67105 31.8941 2.65213C31.8484 2.63321 31.7994 2.62347 31.75 2.62347C31.7006 2.62347 31.6516 2.63321 31.6059 2.65213C31.5602 2.67105 31.5187 2.69879 31.4837 2.73375L30.9025 3.31875C30.1908 2.71265 29.3067 2.34537 28.375 2.26875V1.5H29.125C29.2245 1.5 29.3198 1.46049 29.3902 1.39017C29.4605 1.31984 29.5 1.22446 29.5 1.125C29.5 1.02554 29.4605 0.930161 29.3902 0.859835C29.3198 0.789509 29.2245 0.75 29.125 0.75H26.875C26.7755 0.75 26.6802 0.789509 26.6098 0.859835C26.5395 0.930161 26.5 1.02554 26.5 1.125C26.5 1.22446 26.5395 1.31984 26.6098 1.39017C26.6802 1.46049 26.7755 1.5 26.875 1.5H27.625V2.26875C26.6193 2.3518 25.6707 2.77048 24.9316 3.45751C24.1925 4.14455 23.7058 5.06008 23.5496 6.05703C23.3934 7.05398 23.5769 8.0745 24.0705 8.95465C24.5641 9.83479 25.3392 10.5235 26.2713 10.9101C27.2034 11.2967 28.2384 11.3588 29.2101 11.0864C30.1817 10.814 31.0336 10.223 31.6289 9.40816C32.2242 8.59335 32.5284 7.60209 32.4925 6.59362C32.4567 5.58514 32.0829 4.61799 31.4312 3.8475ZM28 10.5C27.2583 10.5 26.5333 10.2801 25.9166 9.86801C25.2999 9.45596 24.8193 8.87029 24.5354 8.18506C24.2516 7.49984 24.1774 6.74584 24.3221 6.01841C24.4667 5.29098 24.8239 4.6228 25.3483 4.09835C25.8728 3.5739 26.541 3.21675 27.2684 3.07206C27.9958 2.92736 28.7498 3.00162 29.4351 3.28545C30.1203 3.56928 30.706 4.04993 31.118 4.66661C31.5301 5.2833 31.75 6.00832 31.75 6.75C31.75 7.24246 31.653 7.73009 31.4645 8.18506C31.2761 8.64003 30.9999 9.05343 30.6516 9.40165C30.3034 9.74987 29.89 10.0261 29.4351 10.2145C28.9801 10.403 28.4925 10.5 28 10.5Z" fill="#FBC403"/>
<path d="M28.375 6.59625V4.5C28.375 4.40054 28.3355 4.30516 28.2652 4.23484C28.1948 4.16451 28.0995 4.125 28 4.125C27.9006 4.125 27.8052 4.16451 27.7348 4.23484C27.6645 4.30516 27.625 4.40054 27.625 4.5V6.75C27.6247 6.79935 27.6342 6.84828 27.6528 6.89397C27.6715 6.93965 27.699 6.98121 27.7338 7.01625L28.8588 8.14125C28.8936 8.1764 28.9351 8.2043 28.9808 8.22333C29.0265 8.24237 29.0755 8.25217 29.125 8.25217C29.1745 8.25217 29.2235 8.24237 29.2692 8.22333C29.3149 8.2043 29.3564 8.1764 29.3913 8.14125C29.4264 8.10639 29.4543 8.06491 29.4733 8.01922C29.4924 7.97352 29.5022 7.9245 29.5022 7.875C29.5022 7.8255 29.4924 7.77648 29.4733 7.73078C29.4543 7.68509 29.4264 7.64361 29.3913 7.60875L28.375 6.59625Z" fill="#FBC403"/>
</svg>
