<svg width="22" height="22" viewBox="0 0 22 22" fill="none" xmlns="http://www.w3.org/2000/svg">
<g clip-path="url(#clip0_280_2617)">
<path d="M6.53125 15.8125C6.53125 15.4328 6.83904 15.125 7.21875 15.125H14.7812C15.161 15.125 15.4688 15.4328 15.4688 15.8125C15.4688 16.1922 15.161 16.5 14.7812 16.5H7.21875C6.83904 16.5 6.53125 16.1922 6.53125 15.8125Z" fill="#FBC403"/>
<path fill-rule="evenodd" clip-rule="evenodd" d="M13.9698 1.70167C12.2261 0.349443 9.77391 0.349443 8.03017 1.70167L2.53018 5.96681C1.36854 6.86764 0.6875 8.24756 0.6875 9.71142V16.5537C0.6875 19.1904 2.85066 21.3125 5.5 21.3125H16.5C19.1493 21.3125 21.3125 19.1904 21.3125 16.5537V9.71142C21.3125 8.24756 20.6315 6.86764 19.4698 5.96681L13.9698 1.70167ZM8.87281 2.78824C10.1206 1.82059 11.8794 1.82059 13.1272 2.78824L18.6272 7.05337C19.4562 7.69625 19.9375 8.67663 19.9375 9.71142V16.5537C19.9375 18.4141 18.407 19.9375 16.5 19.9375H5.5C3.59301 19.9375 2.0625 18.4141 2.0625 16.5537V9.71142C2.0625 8.67663 2.54378 7.69625 3.37279 7.05337L8.87281 2.78824Z" fill="#FBC403"/>
</g>
<defs>
<clipPath id="clip0_280_2617">
<rect width="22" height="22" fill="white"/>
</clipPath>
</defs>
</svg>
