<svg width="23" height="22" viewBox="0 0 23 22" fill="none" xmlns="http://www.w3.org/2000/svg">
<g clip-path="url(#clip0_280_2644)">
<path d="M11.7509 10.5975C13.2068 10.5975 14.4674 10.0753 15.4976 9.04507C16.5275 8.015 17.0499 6.75464 17.0499 5.29857C17.0499 3.84301 16.5277 2.58248 15.4975 1.55208C14.4672 0.52217 13.2067 0 11.7509 0C10.2949 0 9.03452 0.52217 8.00444 1.55224C6.97437 2.58232 6.45203 3.84284 6.45203 5.29857C6.45203 6.75464 6.97437 8.01517 8.00444 9.04524C9.03485 10.0751 10.2954 10.5975 11.7509 10.5975ZM8.91618 2.46382C9.70657 1.67343 10.6338 1.28923 11.7509 1.28923C12.868 1.28923 13.7953 1.67343 14.5859 2.46382C15.3763 3.25437 15.7606 4.18172 15.7606 5.29857C15.7606 6.41576 15.3763 7.34294 14.5859 8.1335C13.7953 8.92406 12.868 9.30826 11.7509 9.30826C10.6341 9.30826 9.70691 8.92389 8.91618 8.1335C8.12563 7.34311 7.74126 6.41576 7.74126 5.29857C7.74126 4.18172 8.12563 3.25437 8.91618 2.46382Z" fill="#DBDBDB"/>
<path d="M21.0226 16.917C20.9929 16.4883 20.9328 16.0207 20.8444 15.5269C20.7551 15.0294 20.6401 14.5591 20.5025 14.1292C20.3601 13.6849 20.1669 13.2462 19.9278 12.8257C19.6799 12.3893 19.3885 12.0093 19.0615 11.6966C18.7196 11.3695 18.301 11.1065 17.8169 10.9146C17.3345 10.7238 16.7999 10.6271 16.2281 10.6271C16.0035 10.6271 15.7863 10.7193 15.3669 10.9924C15.1087 11.1607 14.8068 11.3554 14.4697 11.5708C14.1815 11.7544 13.7911 11.9264 13.3089 12.0822C12.8384 12.2344 12.3607 12.3116 11.8891 12.3116C11.4178 12.3116 10.9401 12.2344 10.4693 12.0822C9.98755 11.9266 9.59697 11.7545 9.30928 11.5709C8.97543 11.3576 8.67331 11.1629 8.4113 10.9922C7.99219 10.7191 7.77499 10.627 7.55042 10.627C6.97839 10.627 6.44397 10.7238 5.96175 10.9148C5.47801 11.1063 5.05923 11.3693 4.717 11.6968C4.39003 12.0097 4.09865 12.3895 3.85091 12.8257C3.61206 13.2462 3.4187 13.6848 3.27637 14.1294C3.1389 14.5593 3.02393 15.0294 2.93463 15.5269C2.84601 16.02 2.78609 16.4878 2.75638 16.9175C2.72717 17.3376 2.7124 17.7749 2.7124 18.2166C2.7124 19.365 3.07747 20.2947 3.79736 20.9804C4.50836 21.657 5.44897 22.0001 6.59319 22.0001H17.1863C18.3302 22.0001 19.2708 21.657 19.982 20.9804C20.702 20.2952 21.0671 19.3652 21.0671 18.2165C21.0669 17.7732 21.052 17.3359 21.0226 16.917ZM19.0931 20.0463C18.6233 20.4935 17.9995 20.7108 17.1862 20.7108H6.59319C5.77963 20.7108 5.15591 20.4935 4.68628 20.0465C4.22554 19.6079 4.00163 19.0092 4.00163 18.2166C4.00163 17.8044 4.01523 17.3974 4.04242 17.0066C4.06894 16.6233 4.12315 16.2021 4.20355 15.7547C4.28294 15.3127 4.38399 14.898 4.50417 14.5225C4.61948 14.1625 4.77675 13.806 4.97179 13.4625C5.15793 13.1352 5.3721 12.8544 5.60843 12.6282C5.82948 12.4165 6.10811 12.2433 6.43642 12.1134C6.74005 11.9932 7.08128 11.9274 7.45172 11.9175C7.49687 11.9415 7.57727 11.9873 7.70752 12.0723C7.97255 12.245 8.27803 12.442 8.61574 12.6577C8.99641 12.9004 9.48686 13.1196 10.0728 13.3088C10.6719 13.5025 11.2828 13.6009 11.8893 13.6009C12.4957 13.6009 13.1068 13.5025 13.7055 13.309C14.292 13.1195 14.7823 12.9004 15.1634 12.6574C15.509 12.4365 15.806 12.2452 16.071 12.0723C16.2012 11.9875 16.2816 11.9415 16.3268 11.9175C16.6974 11.9274 17.0386 11.9932 17.3424 12.1134C17.6706 12.2433 17.9492 12.4167 18.1702 12.6282C18.4066 12.8543 18.6207 13.1351 18.8069 13.4627C19.0021 13.806 19.1595 14.1626 19.2747 14.5223C19.395 14.8983 19.4962 15.3129 19.5755 15.7545C19.6557 16.2028 19.7101 16.6241 19.7366 17.0068V17.0071C19.7639 17.3964 19.7777 17.8032 19.7779 18.2166C19.7777 19.0094 19.5538 19.6079 19.0931 20.0463Z" fill="#DBDBDB"/>
</g>
<defs>
<clipPath id="clip0_280_2644">
<rect width="22" height="22" fill="white" transform="translate(0.907715)"/>
</clipPath>
</defs>
</svg>
