<svg width="23" height="22" viewBox="0 0 23 22" fill="none" xmlns="http://www.w3.org/2000/svg">
<g clip-path="url(#clip0_280_2624)">
<g clip-path="url(#clip1_280_2624)">
<path d="M16.4004 22.1943H8.40039C4.75039 22.1943 2.65039 20.0943 2.65039 16.4443V6.44434C2.65039 2.79434 4.75039 0.694336 8.40039 0.694336H16.4004C20.0504 0.694336 22.1504 2.79434 22.1504 6.44434V16.4443C22.1504 20.0943 20.0504 22.1943 16.4004 22.1943ZM8.40039 2.19434C5.54039 2.19434 4.15039 3.58434 4.15039 6.44434V16.4443C4.15039 19.3043 5.54039 20.6943 8.40039 20.6943H16.4004C19.2604 20.6943 20.6504 19.3043 20.6504 16.4443V6.44434C20.6504 3.58434 19.2604 2.19434 16.4004 2.19434H8.40039Z" fill="#DBDBDB"/>
<path d="M18.9004 8.69434H16.9004C15.3804 8.69434 14.1504 7.46434 14.1504 5.94434V3.94434C14.1504 3.53434 14.4904 3.19434 14.9004 3.19434C15.3104 3.19434 15.6504 3.53434 15.6504 3.94434V5.94434C15.6504 6.63434 16.2104 7.19434 16.9004 7.19434H18.9004C19.3104 7.19434 19.6504 7.53434 19.6504 7.94434C19.6504 8.35434 19.3104 8.69434 18.9004 8.69434Z" fill="#DBDBDB"/>
<path d="M12.4004 13.1943H8.40039C7.99039 13.1943 7.65039 12.8543 7.65039 12.4443C7.65039 12.0343 7.99039 11.6943 8.40039 11.6943H12.4004C12.8104 11.6943 13.1504 12.0343 13.1504 12.4443C13.1504 12.8543 12.8104 13.1943 12.4004 13.1943Z" fill="#DBDBDB"/>
<path d="M16.4004 17.1943H8.40039C7.99039 17.1943 7.65039 16.8543 7.65039 16.4443C7.65039 16.0343 7.99039 15.6943 8.40039 15.6943H16.4004C16.8104 15.6943 17.1504 16.0343 17.1504 16.4443C17.1504 16.8543 16.8104 17.1943 16.4004 17.1943Z" fill="#DBDBDB"/>
</g>
</g>
<defs>
<clipPath id="clip0_280_2624">
<rect width="22" height="22" fill="white" transform="translate(0.854004 0.444336)"/>
</clipPath>
<clipPath id="clip1_280_2624">
<rect width="22" height="22" fill="white" transform="translate(1.854 0.444336)"/>
</clipPath>
</defs>
</svg>
