<svg width="28" height="22" viewBox="0 0 28 22" fill="none" xmlns="http://www.w3.org/2000/svg">
<path d="M27.373 7.37789C27.0255 7.05711 26.5711 6.84326 26.0632 6.84326C26.0899 6.84326 26.1166 6.84326 26.1434 6.84326V4.08992C26.1434 2.96719 25.6889 1.9514 24.9405 1.20292C24.192 0.454435 23.1762 0 22.0535 0H4.08992C2.96719 0 1.9514 0.454435 1.20292 1.20292C0.454435 1.9514 0 2.96719 0 4.08992V17.9101C0 19.0328 0.454435 20.0486 1.20292 20.7971C1.9514 21.5456 2.96719 22 4.08992 22H22.0535C23.1762 22 24.192 21.5456 24.9405 20.7971C25.6889 20.0486 26.1434 19.0328 26.1434 17.9101V15.13C26.1166 15.13 26.0899 15.13 26.0632 15.13C26.5711 15.13 27.0255 14.9162 27.373 14.5954C27.6938 14.2746 27.9077 13.7934 27.9077 13.2855V8.68773C27.9077 8.17983 27.6938 7.7254 27.373 7.37789ZM24.6732 17.8834C24.6732 18.6051 24.3791 19.2467 23.8979 19.7278C23.4168 20.209 22.7752 20.503 22.0535 20.503H4.08992C3.36817 20.503 2.72661 20.209 2.24544 19.7278C1.76428 19.2467 1.47023 18.6051 1.47023 17.8834V4.08992C1.47023 3.36817 1.76428 2.72661 2.24544 2.24544C2.72661 1.76428 3.36817 1.47023 4.08992 1.47023H22.0535C22.7752 1.47023 23.4168 1.76428 23.8979 2.24544C24.3791 2.72661 24.6732 3.36817 24.6732 4.08992V6.84326H16.3864C15.2637 6.84326 14.2746 7.29769 13.5261 8.01944C12.8044 8.74119 12.3499 9.75699 12.3499 10.8797V11.0668C12.3499 12.1896 12.8044 13.1786 13.5261 13.9271C14.2479 14.6488 15.2637 15.1033 16.3864 15.1033H24.6732V17.8834ZM26.4374 13.2855C26.4374 13.3925 26.384 13.4994 26.3305 13.5529C26.2503 13.6331 26.1701 13.6598 26.0632 13.6598H16.3864C15.6914 13.6598 15.0231 13.3657 14.5687 12.9113C14.1142 12.4569 13.8202 11.7886 13.8202 11.0936V10.9064C13.8202 10.1847 14.1142 9.54314 14.5687 9.0887C15.0498 8.60753 15.6914 8.34022 16.3864 8.34022H26.0632C26.1701 8.34022 26.277 8.39368 26.3305 8.44715C26.4107 8.52734 26.4374 8.60754 26.4374 8.71446V13.2855Z" fill="#DBDBDB"/>
<path d="M16.5733 9.78369C16.2525 9.78369 15.9585 9.91735 15.7446 10.1312C15.5308 10.3451 15.3971 10.6391 15.3971 10.9599C15.3971 11.2807 15.5308 11.5747 15.7446 11.7886C15.9585 12.0024 16.2525 12.1361 16.5733 12.1361C16.8941 12.1361 17.1881 12.0024 17.4287 11.7886C17.6425 11.5747 17.7762 11.2807 17.7762 10.9331C17.7762 10.6124 17.6425 10.3183 17.4287 10.0777C17.1881 9.91735 16.8941 9.78369 16.5733 9.78369Z" fill="#DBDBDB"/>
</svg>
